<svg xmlns="http://www.w3.org/2000/svg" width="66" height="58" viewBox="0 0 66 58">
    <g fill="none" fill-rule="evenodd">
        <g fill-rule="nonzero">
            <g>
                <g transform="translate(-1324 -10407) translate(0 10395) translate(1324 12)">
                    <path fill="#FFF" d="M62 6h-7v35c.113-1.661 1.19-2.98 3.23-3.958 2.04-.978 3.297-1.818 3.77-2.52V6z"/>
                    <rect width="14" height="2" x="51.5" fill="#D3A928" rx=".5"/>
                    <path fill="#D3A928" d="M53 3h11c0 1.105-.985 2-2.2 2h-6.6C53.985 5 53 4.105 53 3z"/>
                    <path fill="#FFF" d="M54 45h9v1c0 .552-.504 1-1.125 1h-6.75C54.504 47 54 46.552 54 46v-1z" transform="matrix(1 0 0 -1 0 92)"/>
                    <path fill="#FFF" d="M31 10v24.395H15.777c.23 6.237-1.12 10.193-4.053 11.867-2.933 1.675-6.84.498-11.724-3.53.697.26 2.331.05 4.902-.63C7.473 41.42 8.76 39.16 8.76 35.32v-8.313c.246-3.8 1.519-6.854 3.819-9.16 3.45-3.458 9.283-3.781 12.319-3.781 2.024 0 4.058-1.356 6.103-4.066zM18.288 21.775c-1.582 1.342-2.316 3.397-2.203 6.164h9.174v-7.784c-3.065-.262-5.388.277-6.97 1.62zM50 10c-2.004 2.585-4.15 4.61-6.434 6.078-2.285 1.468-4.825 2.45-7.62 2.948 1.168.673 2.162 1.298 2.982 1.874 1.23.865 1.834 1.89 2.045 3.825.421 3.854.3 7.724-.361 11.61-.632 3.06-1.884 5.117-3.759 6.172-1.874 1.054-3.825 1.47-5.853 1.248C33.377 45.918 35.927 47 38.65 47c2.373 0 5.828-.99 8.335-3.245 1.671-1.503 2.676-4.034 3.015-7.592V10z"/>
                    <path fill="#D3A928" d="M62 44h-7c.217-1.129.927-1.694 2.128-1.694h.47c-.195-.257-.335-.486-.421-.685-.087-.2-.131-.428-.131-.685 0-1.097.596-1.904 1.787-2.42l.634-.274c.725-.29 1.218-.704 1.477-1.242.207.269.309.575.309.92 0 .472-.217.957-.65 1.451.368.204.552.457.552.758l-.016.097c-.239-.204-.51-.306-.811-.306-.39 0-.716.112-.975.338-.26.226-.39.516-.39.87 0 .184.024.334.073.452.049.119.138.242.268.372.238.204.553.306.942.306.195 0 .341-.043.44-.13.096-.106.183-.192.258-.257.033.29.12.58.26.87.065.14.33.56.796 1.259M6.562 57.893v-1.444H2.946v-1.855h3.061v-1.396h-3.06v-1.642h3.626v-1.449H1v7.786h5.562zm2.588 0v-2.749h1.054l1.425 2.749h2.085v-.08l-1.686-3.14c.484-.22.84-.509 1.067-.866.228-.356.342-.805.342-1.347 0-.749-.27-1.328-.81-1.738-.54-.41-1.288-.615-2.246-.615H7.204v7.786H9.15zm1.231-4.198H9.15v-2.139h1.231c.366 0 .643.096.832.286.188.191.283.454.283.789s-.094.596-.28.783c-.187.188-.465.281-.835.281zm9.642 4.198v-1.444h-3.616v-1.855h3.061v-1.396h-3.06v-1.642h3.626v-1.449H14.46v7.786h5.562zm2.588 0v-1.818l-.189-3.727 1.958 5.545h1.286l1.952-5.54-.188 3.722v1.818h1.952v-7.786H26.82l-1.797 5.417-1.802-5.417h-2.557v7.786h1.947zm12.479 0v-4.845l2.861 4.845h1.936v-7.786h-1.941v4.845l-2.856-4.845h-1.947v7.786h1.947zm11.438 0v-1.444h-3.615v-1.855h3.06v-1.396h-3.06v-1.642h3.626v-1.449h-5.573v7.786h5.562zm3.88 0l1.06-4.438 1.08 4.438h2.02l1.713-7.786h-1.93l-.926 4.882-1.126-4.882h-1.652l-1.11 4.882-.925-4.882h-1.936l1.72 7.786h2.012zm9.603.107c.928 0 1.658-.194 2.19-.583.533-.388.799-.923.799-1.604 0-.852-.436-1.52-1.309-2.006-.358-.2-.817-.385-1.375-.558-.558-.173-.948-.34-1.17-.503-.222-.162-.333-.343-.333-.543 0-.228.101-.416.302-.564.202-.148.476-.222.824-.222.344 0 .616.087.818.262.201.175.302.42.302.738H63c0-.474-.128-.896-.383-1.265-.255-.369-.612-.653-1.073-.853-.46-.2-.98-.299-1.56-.299-.596 0-1.132.092-1.609.275-.477.184-.845.44-1.106.77-.26.33-.391.71-.391 1.142 0 .866.523 1.547 1.57 2.043.32.153.735.312 1.241.476.507.164.86.323 1.062.476.202.153.303.367.303.642 0 .242-.094.43-.28.564-.187.133-.441.2-.763.2-.503 0-.866-.099-1.09-.297-.223-.197-.335-.505-.335-.922h-1.952c0 .513.134.967.402 1.36.268.395.667.705 1.198.931.53.227 1.123.34 1.777.34z"/>
                </g>
            </g>
        </g>
    </g>
</svg>
