<?xml version="1.0" encoding="UTF-8"?>
<svg width="20px" height="14px" viewBox="0 0 20 14" version="1.1" xmlns="http://www.w3.org/2000/svg" xmlns:xlink="http://www.w3.org/1999/xlink">
    <title>Path</title>
    <g id="Desktop" stroke="none" stroke-width="1" fill="none" fill-rule="evenodd">
        <g id="Home-Page" transform="translate(-200.000000, -4991.000000)" fill="#AC37A5" fill-rule="nonzero">
            <g id="منوعات" transform="translate(50.000000, 4044.000000)">
                <g id="arrow-pointing-to-right-copy-5" transform="translate(160.000000, 954.000000) rotate(180.000000) translate(-160.000000, -954.000000) translate(150.000000, 947.000000)">
                    <path d="M19.7275999,6.33109234 L13.7759385,0.277030104 C13.4128128,-0.092343368 12.8238959,-0.092343368 12.4607702,0.277030104 C12.09757,0.646479252 12.09757,1.24537736 12.4607702,1.61482651 L16.8249003,6.05404332 L0.929947086,6.05404332 C0.416393107,6.05404332 0,6.47760065 0,7 C0,7.52230476 0.416393107,7.94593776 0.929947086,7.94593776 L16.8249003,7.94593776 L12.460919,12.3851546 C12.0977188,12.7546037 12.0977188,13.3535018 12.460919,13.722951 C12.6424446,13.9075242 12.8805111,14 13.1185032,14 C13.3564952,14 13.5944873,13.9075242 13.7760873,13.722951 L19.7275999,7.66888874 C20.0908,7.29943959 20.0908,6.70054149 19.7275999,6.33109234 Z" id="Path"></path>
                </g>
            </g>
        </g>
    </g>
</svg>