<?xml version="1.0" encoding="UTF-8"?>
<svg width="15px" height="9px" viewBox="0 0 15 9" version="1.1" xmlns="http://www.w3.org/2000/svg" xmlns:xlink="http://www.w3.org/1999/xlink">
    <title>Path Copy 3</title>
    <g id="Symbols" stroke="none" stroke-width="1" fill="none" fill-rule="evenodd">
        <g id="Footer-/-Expanded" transform="translate(-20.000000, -328.000000)" fill="#FFFFFF" fill-rule="nonzero">
            <path d="M26.024331,332.503171 L31.7553834,326.891463 C31.9131885,326.737317 32,326.53122 32,326.311463 C32,326.091585 31.9131885,325.88561 31.7553834,325.73122 L31.2531971,325.239756 C31.0956411,325.085122 30.8850267,325 30.6605873,325 C30.4361478,325 30.2257826,325.085122 30.068102,325.239756 L23.2443708,331.920976 C23.0860675,332.075854 22.9993806,332.282805 23,332.502805 C22.9993806,332.72378 23.085943,332.930488 23.2443708,333.085488 L30.06175,339.760244 C30.2194305,339.914878 30.4297958,340 30.6543598,340 C30.8787992,340 31.0891645,339.914878 31.2469696,339.760244 L31.7490314,339.26878 C32.0757265,338.948902 32.0757265,338.428171 31.7490314,338.108415 L26.024331,332.503171 Z" id="Path-Copy-3" transform="translate(27.500000, 332.500000) rotate(90.000000) translate(-27.500000, -332.500000) "></path>
        </g>
    </g>
</svg>