<svg xmlns="http://www.w3.org/2000/svg" width="17" height="18" viewBox="0 0 17 18">
    <g fill="none" fill-rule="evenodd">
        <g fill="#FFF" fill-rule="nonzero">
            <g>
                <g>
                    <g>
                        <path d="M3.396.278c-.42-.26-1.601-.107-2.074 0l8.515 7.745L13 5.423 3.396.277zM.371 1C.136 1.29 0 1.647 0 2.024v13.952c0 .377.136.734.371 1.024L9 9 .371 1zM16.115 7.385L13.803 6 11 9l2.803 3 2.312-1.385C16.67 10.283 17 9.68 17 9c0-.68-.33-1.283-.885-1.615zM10.307 10L2 17.953c.136.03.275.047.413.047.343 0 .684-.093.983-.278L13 12.578 10.307 10z" transform="translate(-205 -10263) translate(50 10198) translate(154.461 65) translate(.539)"/>
                    </g>
                </g>
            </g>
        </g>
    </g>
</svg>
