<svg xmlns="http://www.w3.org/2000/svg" width="58" height="53" viewBox="0 0 58 53">
    <g fill="none" fill-rule="evenodd">
        <g fill-rule="nonzero">
            <g transform="translate(-152 -7) translate(152 7)">
                <path fill="#FFF" d="M54.5 6h-6v31c.097-1.471 1.02-2.64 2.769-3.506 1.749-.866 2.826-1.61 3.231-2.232V6z"/>
                <rect width="12" height="2" x="45.5" fill="#DCAE1E" rx=".5"/>
                <path fill="#DCAE1E" d="M46.5 3h10c0 1.105-.895 2-2 2h-6c-1.105 0-2-.895-2-2z"/>
                <path fill="#FFF" d="M47.5 40h8v1c0 .552-.448 1-1 1h-6c-.552 0-1-.448-1-1v-1z" transform="matrix(1 0 0 -1 0 82)"/>
                <path fill="#FFF" d="M27 9v21.757H13.742c.2 5.563-.977 9.092-3.53 10.585-2.555 1.494-5.959.444-10.212-3.148.607.232 2.03.044 4.27-.563 2.239-.607 3.359-2.623 3.359-6.049V24.17c.214-3.39 1.323-6.114 3.326-8.17 3.005-3.084 8.085-3.373 10.73-3.373 1.762 0 3.534-1.209 5.315-3.626zM15.929 19.502c-1.378 1.197-2.018 3.03-1.92 5.498H22v-6.942c-2.67-.235-4.693.247-6.071 1.444zM44.5 9c-1.793 2.305-3.712 4.112-5.757 5.421-2.044 1.31-4.317 2.186-6.817 2.63 1.044.6 1.934 1.157 2.668 1.671 1.1.771 1.64 1.685 1.83 3.41.376 3.439.268 6.89-.324 10.355-.565 2.73-1.686 4.565-3.363 5.505-1.677.94-3.422 1.312-5.237 1.114C29.627 41.036 31.908 42 34.345 42c2.123 0 5.214-.884 7.457-2.894 1.496-1.34 2.395-3.598 2.698-6.772V9z"/>
                <path fill="#DCAE1E" d="M54.5 39h-6c.186-.968.794-1.452 1.824-1.452h.403c-.167-.22-.287-.417-.361-.587-.075-.17-.112-.367-.112-.588 0-.94.51-1.631 1.532-2.074l.542-.235c.623-.248 1.045-.603 1.267-1.064.177.23.265.492.265.788 0 .405-.186.82-.557 1.244.315.175.473.392.473.65l-.014.083c-.205-.175-.436-.262-.695-.262-.335 0-.614.096-.836.29-.223.193-.334.442-.334.746 0 .157.02.286.063.387.041.101.117.208.229.319.204.174.474.262.807.262.168 0 .293-.037.377-.111.083-.092.157-.166.222-.22.028.248.103.497.223.746.055.12.283.479.682 1.078M5.435 52v-1.318H2.25v-1.695h2.695v-1.274H2.251v-1.5h3.193v-1.322H.537V52h4.898zm2.278 0v-2.51h.928L9.896 52h1.836v-.073l-1.484-2.866c.426-.202.74-.466.94-.791.2-.326.3-.736.3-1.23 0-.685-.238-1.214-.713-1.588-.475-.374-1.135-.561-1.978-.561H6V52h1.714zm1.084-3.833H7.713v-1.953h1.084c.323 0 .567.087.733.261.166.174.249.414.249.72s-.082.545-.247.716c-.164.17-.41.256-.735.256zM17.287 52v-1.318h-3.184v-1.695H16.8v-1.274h-2.696v-1.5h3.194v-1.322H12.39V52h4.897zm2.279 0v-1.66l-.166-3.403L21.123 52h1.133l1.719-5.059-.166 3.399V52h1.719v-7.11h-2.256l-1.582 4.947-1.587-4.946h-2.251V52h1.714zm10.988 0v-4.424L33.074 52h1.704v-7.11h-1.71v4.424l-2.514-4.423H28.84V52h1.714zm10.072 0v-1.318h-3.184v-1.695h2.696v-1.274h-2.696v-1.5h3.194v-1.322h-4.908V52h4.898zm3.416 0l.933-4.053.952 4.053h1.777l1.51-7.11h-1.7l-.815 4.459-.992-4.458h-1.455l-.976 4.458-.816-4.458h-1.704L42.27 52h1.772zm8.456.098c.817 0 1.46-.178 1.928-.533.47-.354.704-.843.704-1.464 0-.778-.384-1.389-1.153-1.831-.315-.183-.72-.353-1.21-.51-.492-.159-.836-.312-1.03-.46-.196-.148-.294-.313-.294-.495 0-.209.089-.38.266-.515.178-.136.42-.203.725-.203.303 0 .543.08.72.24.178.159.267.383.267.673h1.709c0-.433-.113-.818-.337-1.155-.225-.337-.54-.596-.945-.779-.405-.182-.864-.273-1.375-.273-.524 0-.996.084-1.416.251-.42.168-.744.402-.974.704-.23.3-.344.648-.344 1.042 0 .791.46 1.413 1.382 1.865.283.14.648.285 1.094.435.446.15.757.294.935.434.177.14.266.336.266.586 0 .222-.082.393-.247.515-.164.123-.388.184-.671.184-.443 0-.763-.09-.96-.271-.197-.181-.295-.462-.295-.843h-1.719c0 .47.118.883.354 1.243.236.36.588.643 1.055.85.467.206.989.31 1.565.31z"/>
            </g>
        </g>
    </g>
</svg>
