<svg xmlns="http://www.w3.org/2000/svg" width="15" height="9" viewBox="0 0 15 9">
    <g fill="none" fill-rule="evenodd">
        <g fill="#001C3C" fill-rule="nonzero">
            <path d="M26.024 164.503l5.731-5.612c.158-.154.245-.36.245-.58 0-.22-.087-.425-.245-.58l-.502-.491c-.157-.155-.368-.24-.592-.24-.225 0-.435.085-.593.24l-6.824 6.681c-.158.155-.245.362-.244.582 0 .22.086.427.244.582l6.818 6.675c.157.155.368.24.592.24.225 0 .435-.085.593-.24l.502-.491c.327-.32.327-.84 0-1.16l-5.725-5.606z" transform="translate(-20 -160) rotate(-90 27.5 164.5)"/>
        </g>
    </g>
</svg>
