<svg xmlns="http://www.w3.org/2000/svg" width="25" height="25" viewBox="0 0 25 25">
    <g fill="none" fill-rule="evenodd">
        <g fill="#FFF" fill-rule="nonzero">
            <path d="M44.62 42.771l-6.163-6.188c1.585-1.819 2.453-4.107 2.453-6.49C40.91 24.529 36.22 20 30.455 20S20 24.528 20 30.094c0 5.565 4.69 10.093 10.455 10.093 2.164 0 4.226-.63 5.99-1.826l6.21 6.235c.259.26.608.404.982.404.354 0 .69-.13.945-.367.542-.504.56-1.338.038-1.862zM30.455 22.633c4.26 0 7.727 3.347 7.727 7.46 0 4.115-3.466 7.461-7.727 7.461s-7.728-3.346-7.728-7.46 3.467-7.46 7.728-7.46z" transform="translate(-20 -20)"/>
        </g>
    </g>
</svg>
