<svg xmlns="http://www.w3.org/2000/svg" width="72" height="50" viewBox="0 0 72 50">
    <g fill="none" fill-rule="evenodd">
        <g>
            <g>
                <path fill="#000" fill-opacity=".7" fill-rule="nonzero" d="M68.94 4.818C66.987 1.31 64.868.664 60.552.418 56.241.123 45.401 0 36.009 0c-9.41 0-20.255.123-24.561.414-4.307.25-6.43.89-8.402 4.404C1.035 8.323 0 14.36 0 24.986v.037c0 10.582 1.035 16.663 3.046 20.132 1.972 3.509 4.091 4.145 8.398 4.44 4.31.255 15.155.405 24.565.405 9.392 0 20.232-.15 24.547-.4 4.316-.295 6.436-.932 8.389-4.44C70.974 41.69 72 35.61 72 25.026v-.022-.014c0-10.632-1.026-16.668-3.06-20.173zM27 38.636V11.364L49.5 25 27 38.636z" transform="translate(-337 -137) translate(337 137)"/>
                <path fill="#FFF" d="M38.407 13.906L52 36.906 25 36.906z" transform="translate(-337 -137) translate(337 137) rotate(90 38.5 25.406)"/>
            </g>
        </g>
    </g>
</svg>
