<svg xmlns="http://www.w3.org/2000/svg" width="169" height="31" viewBox="0 0 169 31">
    <g fill="none" fill-rule="evenodd">
        <g>
            <g transform="translate(-128 -28) translate(128 28)">
                <circle cx="153.5" cy="15.5" r="15.5" fill="#07386B"/>
                <circle cx="61.5" cy="15.5" r="15.5" fill="#07386B"/>
                <circle cx="15.5" cy="15.5" r="15.5" fill="#07386B"/>
                <circle cx="107.5" cy="15.5" r="15.5" fill="#07386B"/>
                <path fill="#FFF" fill-rule="nonzero" d="M154.842 24v-7.754h2.653l.398-3.023h-3.05v-1.93c0-.874.246-1.47 1.526-1.47L158 9.822V7.118c-.282-.036-1.25-.118-2.376-.118-2.353 0-3.964 1.408-3.964 3.994v2.23H149v3.022h2.66V24h3.182zM115.902 10.554c-.113-.132-.295-.167-.443-.084-.153.075-.31.136-.472.183.252-.346.442-.74.561-1.16.053-.212-.065-.43-.262-.486-.105-.03-.218-.009-.307.059-.562.326-1.16.577-1.778.746-1.275-1.291-3.216-1.452-4.66-.386-1.113.807-1.725 2.203-1.597 3.638-2.412-.22-4.63-1.503-6.129-3.544-.077-.1-.194-.155-.314-.148-.123.008-.233.08-.296.193-.508.893-.656 1.97-.408 2.982.127.52.345 1.009.642 1.442-.133-.07-.26-.157-.375-.258-.158-.138-.391-.112-.52.058-.053.07-.082.159-.082.25.022 1.468.772 2.811 1.969 3.523-.162-.021-.321-.058-.476-.11-.196-.063-.402.056-.46.266-.026.092-.02.19.016.277.52 1.249 1.557 2.16 2.8 2.46-1.184.717-2.547 1.019-3.899.862-.175-.024-.341.09-.394.271-.054.18.017.376.17.469 1.655 1.055 3.538 1.63 5.462 1.666 1.847-.007 3.65-.6 5.185-1.702 2.929-2.087 4.755-5.834 4.5-9.187.627-.498 1.17-1.106 1.607-1.798.09-.152.074-.35-.04-.482zM61.668 24h-.17c-1.332.003-2.563-.03-3.76-.104-1.099-.067-2.1-.446-2.899-1.097-.77-.628-1.296-1.477-1.563-2.523-.233-.911-.245-1.806-.257-2.67-.008-.621-.017-1.357-.019-2.104.002-.751.01-1.487.02-2.107.011-.865.023-1.76.256-2.67.267-1.047.793-1.896 1.563-2.524.798-.651 1.8-1.03 2.898-1.097 1.198-.073 2.43-.107 3.765-.104 1.333-.003 2.563.031 3.76.104 1.099.067 2.1.446 2.899 1.097.77.628 1.296 1.477 1.563 2.523.233.911.245 1.806.257 2.67.008.621.017 1.357.019 2.104v.004c-.002.747-.01 1.483-.02 2.103-.011.865-.023 1.76-.256 2.67-.267 1.047-.793 1.896-1.563 2.524-.798.651-1.8 1.03-2.898 1.097-1.147.07-2.325.104-3.595.104zm-.17-1.328c1.311.003 2.515-.03 3.684-.101.83-.05 1.55-.32 2.14-.801.545-.445.92-1.058 1.115-1.823.194-.758.205-1.572.216-2.36.008-.616.017-1.346.019-2.087-.002-.74-.01-1.47-.02-2.087-.01-.788-.021-1.602-.215-2.36-.195-.765-.57-1.379-1.115-1.823-.59-.48-1.31-.75-2.14-.8-1.169-.072-2.373-.105-3.68-.102-1.311-.003-2.515.03-3.684.101-.83.05-1.55.32-2.14.8-.545.445-.92 1.059-1.115 1.824-.194.758-.205 1.572-.216 2.36-.008.617-.017 1.347-.019 2.089.002.738.01 1.468.02 2.085.01.788.021 1.602.215 2.36.195.765.57 1.378 1.115 1.823.59.48 1.31.75 2.14.8 1.169.072 2.373.105 3.68.102zm-.031-3.022c-2.289 0-4.15-1.861-4.15-4.15 0-2.289 1.861-4.15 4.15-4.15 2.288 0 4.15 1.861 4.15 4.15 0 2.289-1.862 4.15-4.15 4.15zm0-6.972c-1.556 0-2.823 1.266-2.823 2.822s1.267 2.822 2.823 2.822 2.822-1.266 2.822-2.822-1.266-2.822-2.822-2.822zm4.615-2.657c-.55 0-.996.446-.996.997 0 .55.446.996.996.996s.996-.446.996-.996-.446-.997-.996-.997zM7.666 23h2.668c.368 0 .666-.23.666-.513v-8.974c0-.283-.298-.513-.666-.513H7.666c-.368 0-.666.23-.666.513v8.974c0 .283.298.513.666.513zM7.666 11h2.668c.368 0 .666-.242.666-.54V8.54c0-.298-.298-.54-.666-.54H7.666C7.298 8 7 8.242 7 8.54v1.92c0 .298.298.54.666.54zM23.199 13.398c-.3-.408-.74-.742-1.324-1.005-.583-.262-1.227-.393-1.932-.393-1.43 0-2.642.564-3.636 1.693-.197.224-.341.175-.341-.129v-.732c0-.304-.238-.55-.532-.55h-1.902c-.294 0-.532.246-.532.55v9.618c0 .304.238.55.532.55h2.13c.293 0 .531-.246.531-.55v-3.345c0-1.393.082-2.349.244-2.865.163-.517.464-.932.904-1.245.44-.313.935-.47 1.489-.47.431 0 .8.11 1.108.329.306.22.528.526.664.922.137.395.205 1.266.205 2.613v4.061c0 .304.238.55.532.55h2.13c.293 0 .531-.246.531-.55v-5.447c0-.963-.059-1.703-.176-2.22-.117-.516-.326-.978-.625-1.385z"/>
            </g>
        </g>
    </g>
</svg>
