<?xml version="1.0" encoding="UTF-8"?>
<svg width="48px" height="27px" viewBox="0 0 48 27" version="1.1" xmlns="http://www.w3.org/2000/svg" xmlns:xlink="http://www.w3.org/1999/xlink">
    <title>5E10BA0B-FD74-44D2-8086-E3DF37413C39</title>
    <g id="Desktop" stroke="none" stroke-width="1" fill="none" fill-rule="evenodd">
        <g id="Home-Page" transform="translate(-50.000000, -30.000000)">
            <g id="Desktop-Header" transform="translate(0.000000, 0.000000)">
                <g id="night-mode" transform="translate(50.000000, 30.000000)">
                    <rect id="Rectangle" stroke="#05386B" fill="#FFFFFF" x="2.5" y="2.5" width="45" height="22" rx="11"></rect>
                    <rect id="Rectangle" stroke="#05386B" fill="#05386B" x="0.5" y="0.5" width="26" height="26" rx="13"></rect>
                    <g id="moon" transform="translate(7.000000, 7.000000)" fill="#DCAE1E" fill-rule="nonzero">
                        <path d="M12.6836619,7.40782247 C12.5506746,7.37443634 12.4176874,7.40782247 12.3013235,7.49128781 C11.8691148,7.85853529 11.3704125,8.1590105 10.82184,8.3593273 C10.3065143,8.55964411 9.74131833,8.65980252 9.14287556,8.65980252 C7.79637934,8.65980252 6.566247,8.1089313 5.68520626,7.22419873 C4.80416552,6.33946617 4.25559299,5.10417919 4.25559299,3.75204074 C4.25559299,3.18447646 4.35533345,2.63360524 4.52156755,2.13281322 C4.70442506,1.59863507 4.97039962,1.11453612 5.31949124,0.697209438 C5.46910193,0.513585698 5.43585511,0.246496622 5.2529976,0.096259017 C5.13663373,0.0127936807 5.00364645,-0.0205924537 4.87065916,0.0127936807 C3.4576693,0.396734227 2.22753696,1.24808066 1.34649622,2.38320923 C0.498702304,3.50164474 0,4.88716932 0,6.38954537 C0,8.2090897 0.731430045,9.86170336 1.92831557,11.0636042 C3.1252011,12.265505 4.75429529,13 6.58287041,13 C8.11222414,13 9.525214,12.4658218 10.6556059,11.5810893 C11.8026212,10.6796637 12.6337917,9.39429747 12.9828833,7.92530756 C13.0493769,7.69160462 12.9163897,7.45790167 12.6836619,7.40782247 Z" id="Path"></path>
                    </g>
                </g>
            </g>
        </g>
    </g>
</svg>