<svg xmlns="http://www.w3.org/2000/svg" width="20" height="23" viewBox="0 0 20 23">
    <g fill="none" fill-rule="evenodd">
        <g fill="#001C3C" fill-rule="nonzero">
            <g>
                <g>
                    <g>
                        <path d="M18.802 16.716v.045c-.441 1.378-1.07 2.559-1.838 3.655-.701.995-1.56 2.334-3.094 2.334-1.325 0-2.206-.879-3.564-.903-1.437-.024-2.227.735-3.54.926h-.449c-.964-.144-1.743-.932-2.31-1.642-1.672-2.098-2.965-4.808-3.205-8.276v-1.019c.102-2.482 1.27-4.5 2.825-5.478.82-.52 1.948-.963 3.203-.765.538.086 1.088.276 1.57.464.457.181 1.028.502 1.569.485.366-.011.73-.208 1.1-.347 1.082-.403 2.143-.865 3.54-.648 1.68.262 2.873 1.032 3.61 2.22-1.421.933-2.545 2.339-2.353 4.74.17 2.181 1.4 3.457 2.936 4.209zM14.545 0h.161c.129 1.606-.479 2.806-1.217 3.675-.725.863-1.717 1.7-3.322 1.573-.107-1.583.502-2.694 1.24-3.561C12.09.879 13.343.16 14.544 0z" transform="translate(-536 -10260) translate(50 10198) translate(396 47) translate(90.97 15)"/>
                    </g>
                </g>
            </g>
        </g>
    </g>
</svg>
