<svg xmlns="http://www.w3.org/2000/svg" width="31" height="31" viewBox="0 0 31 31">
    <g fill="none" fill-rule="evenodd">
        <g>
            <g transform="translate(-579 -16) translate(579 16)">
                <circle cx="15.5" cy="15.5" r="15.5" fill="#F9F9F9"/>
                <g fill="#03A9F4" fill-rule="nonzero">
                    <path d="M16.902 2.554c-.113-.132-.295-.167-.443-.084-.153.075-.31.136-.472.183.252-.346.442-.74.561-1.16.053-.212-.065-.43-.262-.486-.105-.03-.218-.009-.307.059-.562.326-1.16.577-1.778.746C12.926.521 10.985.36 9.54 1.426c-1.113.807-1.725 2.203-1.597 3.638-2.412-.22-4.63-1.503-6.129-3.544-.077-.1-.194-.155-.314-.148-.123.008-.233.08-.296.193-.508.893-.656 1.97-.408 2.982.127.52.345 1.009.642 1.442-.133-.07-.26-.157-.375-.258-.158-.138-.391-.112-.52.058-.053.07-.082.159-.082.25.022 1.468.772 2.811 1.969 3.523-.162-.021-.321-.058-.476-.11-.196-.063-.402.056-.46.266-.026.092-.02.19.016.277.52 1.249 1.557 2.16 2.8 2.46-1.184.717-2.547 1.019-3.899.862-.175-.024-.341.09-.394.271-.054.18.017.376.17.469 1.655 1.055 3.538 1.63 5.462 1.666 1.847-.007 3.65-.6 5.185-1.702 2.929-2.087 4.755-5.834 4.5-9.187.627-.498 1.17-1.106 1.607-1.798.09-.152.074-.35-.04-.482z" transform="translate(7 8)"/>
                </g>
            </g>
        </g>
    </g>
</svg>
