<svg xmlns="http://www.w3.org/2000/svg" width="31" height="31" viewBox="0 0 31 31">
    <g fill="none" fill-rule="evenodd">
        <g>
            <g transform="translate(-533 -16) translate(533 16)">
                <circle cx="15.5" cy="15.5" r="15.5" fill="#F9F9F9"/>
                <g fill-rule="nonzero">
                    <path fill="#4CAF50" d="M9.502 0h-.004C4.26 0 0 4.26 0 9.5c0 2.078.67 4.004 1.809 5.568l-1.184 3.53 3.651-1.168C5.778 18.425 7.57 19 9.502 19 14.74 19 19 14.738 19 9.5S14.74 0 9.502 0z" transform="translate(6 6)"/>
                    <path fill="#FAFAFA" d="M14.803 12.66c-.224.617-1.113 1.13-1.822 1.28-.486.1-1.12.181-3.254-.683-2.73-1.104-4.487-3.813-4.624-3.988C4.972 9.093 4 7.834 4 6.533c0-1.302.677-1.936.95-2.208.224-.223.594-.325.95-.325.114 0 .218.006.31.01.273.012.41.027.59.448.224.527.77 1.829.835 1.963.066.133.133.315.04.49-.087.182-.164.262-.301.417-.137.154-.267.272-.404.437-.125.144-.267.298-.11.565.159.26.704 1.13 1.508 1.829 1.037.9 1.877 1.189 2.178 1.311.224.091.491.07.655-.1.208-.22.464-.582.725-.94.186-.256.42-.287.667-.197.25.085 1.578.726 1.85.859.273.133.453.197.52.31.064.111.064.639-.16 1.258z" transform="translate(6 6)"/>
                </g>
            </g>
        </g>
    </g>
</svg>
