<svg xmlns="http://www.w3.org/2000/svg" width="25" height="25" viewBox="0 0 25 25">
    <g fill="none" fill-rule="evenodd">
        <g fill="#05386B">
            <g>
                <path d="M-2.313 11.48l29.67-.503c.678-.011 1.238.53 1.25 1.208v.042c-.013.71-.585 1.281-1.294 1.293l-29.67.503c-.678.011-1.238-.53-1.25-1.208v-.042c.013-.71.585-1.281 1.294-1.293z" transform="translate(-315 -20) translate(315 20) rotate(-45 12.5 12.5)"/>
                <path d="M-2.356 10.977l29.67.503c.708.012 1.28.584 1.292 1.293.012.679-.53 1.238-1.208 1.25h-.042l-29.67-.503c-.708-.012-1.28-.584-1.292-1.293-.012-.679.53-1.238 1.208-1.25h.042z" transform="translate(-315 -20) translate(315 20) rotate(45 12.5 12.5)"/>
            </g>
        </g>
    </g>
</svg>
