<?xml version="1.0" encoding="UTF-8"?>
<svg width="17px" height="17px" viewBox="0 0 17 17" version="1.1" xmlns="http://www.w3.org/2000/svg" xmlns:xlink="http://www.w3.org/1999/xlink">
    <title>Shape</title>
    <g id="Symbols" stroke="none" stroke-width="1" fill="none" fill-rule="evenodd">
        <g id="Desktop-Header" transform="translate(-181.000000, -35.000000)" fill="#FFFFFF" fill-rule="nonzero">
            <g id="Social-media" transform="translate(128.000000, 28.000000)">
                <path d="M61.6676432,24 C61.6113514,24 61.5550596,24 61.4983787,23.9997406 C60.1657931,24.0029831 58.9345068,23.9691314 57.7370734,23.8962399 C56.6392532,23.8294444 55.637155,23.4500717 54.8389526,22.7992368 C54.0687664,22.171229 53.542814,21.3220826 53.2757521,20.2756625 C53.0433214,19.3646492 53.0309994,18.4703672 53.0191963,17.6053974 C53.0106358,16.9847826 53.0018159,16.2493831 53,15.5015326 C53.0018159,14.7505692 53.0106358,14.0151697 53.0191963,13.3945549 C53.0309994,12.5297148 53.0433214,11.6354328 53.2757521,10.7242899 C53.542814,9.67786968 54.0687664,8.82872331 54.8389526,8.20071555 C55.637155,7.54988061 56.6392532,7.17050791 57.7372031,7.10371236 C58.9346365,7.03095063 60.1661822,6.9969692 61.5016213,7.00021171 C62.834596,6.99735831 64.0654932,7.03095063 65.2629266,7.10371236 C66.3607468,7.17050791 67.362845,7.54988061 68.1610474,8.20071555 C68.9313633,8.82872331 69.457186,9.67786968 69.7242479,10.7242899 C69.9566786,11.6353031 69.9690006,12.5297148 69.9808037,13.3945549 C69.9893642,14.0151697 69.9983138,14.7505692 70,15.4984198 L70,15.5015326 C69.9983138,16.2493831 69.9893642,16.9847826 69.9808037,17.6053974 C69.9690006,18.4702375 69.9568084,19.3645195 69.7242479,20.2756625 C69.457186,21.3220826 68.9313633,22.171229 68.1610474,22.7992368 C67.362845,23.4500717 66.3607468,23.8294444 65.2629266,23.8962399 C64.1162077,23.9660186 62.9382301,24 61.6676432,24 Z M61.4983787,22.6716119 C62.8093036,22.6747247 64.0129628,22.6416512 65.1822503,22.5705755 C66.0123601,22.5201222 66.7320912,22.2507351 67.3217286,21.769937 C67.8667475,21.3254548 68.2421128,20.7122329 68.4373183,19.9472619 C68.6308377,19.1889056 68.6419922,18.3746485 68.6527577,17.5872394 C68.6611885,16.970775 68.6700085,16.2405636 68.6718243,15.4999762 C68.6700085,14.759259 68.6611885,14.0291773 68.6527577,13.4127129 C68.6419922,12.6253038 68.6308377,11.8110468 68.4373183,11.0525607 C68.2421128,10.2875897 67.8667475,9.67436777 67.3217286,9.22988562 C66.7320912,8.74921717 66.0123601,8.4798301 65.1822503,8.42937678 C64.0129628,8.35817145 62.8093036,8.32535734 61.5014916,8.32821073 C60.1908261,8.32509792 58.9870372,8.35817145 57.8177497,8.42937678 C56.9876399,8.4798301 56.2679088,8.74921717 55.6782714,9.22988562 C55.1332525,9.67436777 54.7578872,10.2875897 54.5626817,11.0525607 C54.3691623,11.8110468 54.3580078,12.6251741 54.3472423,13.4127129 C54.3388114,14.0296962 54.3299915,14.7602966 54.3281757,15.5015326 C54.3299915,16.239526 54.3388114,16.9702562 54.3472423,17.5872394 C54.3580078,18.3746485 54.3691623,19.1889056 54.5626817,19.9472619 C54.7578872,20.7122329 55.1332525,21.3254548 55.6782714,21.769937 C56.2679088,22.2506054 56.9876399,22.5199925 57.8177497,22.5704458 C58.9870372,22.6416512 60.1910855,22.6748544 61.4983787,22.6716119 Z M61.4667307,19.6503784 C59.1782218,19.6503784 57.3161818,17.7885339 57.3161818,15.4999762 C57.3161818,13.2114184 59.1782218,11.3495739 61.4667307,11.3495739 C63.7553694,11.3495739 65.6172797,13.2114184 65.6172797,15.4999762 C65.6172797,17.7885339 63.7553694,19.6503784 61.4667307,19.6503784 Z M61.4667307,12.6777026 C59.9105343,12.6777026 58.6443575,13.9438347 58.6443575,15.4999762 C58.6443575,17.0561176 59.9105343,18.3222497 61.4667307,18.3222497 C63.0230569,18.3222497 64.289104,17.0561176 64.289104,15.4999762 C64.289104,13.9438347 63.0230569,12.6777026 61.4667307,12.6777026 L61.4667307,12.6777026 Z M66.0821412,10.0214452 C65.5320637,10.0214452 65.0860094,10.467354 65.0860094,11.0175417 C65.0860094,11.5677294 65.5320637,12.0136382 66.0821412,12.0136382 C66.6323483,12.0136382 67.0782729,11.5677294 67.0782729,11.0175417 C67.0782729,10.467354 66.6323483,10.0214452 66.0821412,10.0214452 Z" id="Shape"></path>
            </g>
        </g>
    </g>
</svg>