<svg xmlns="http://www.w3.org/2000/svg" width="48" height="27" viewBox="0 0 48 27">
    <g fill="none" fill-rule="evenodd">
        <g>
            <g transform="translate(-50 -30) translate(50 30)">
                <rect width="45" height="22" x=".5" y="2.5" stroke="#FFF" rx="11"/>
                <rect width="26" height="26" x="21.5" y=".5" fill="#FFF" stroke="#FFF" rx="13"/>
                <circle cx="34.5" cy="13.5" r="5.5" fill="#FFC107" fill-rule="nonzero"/>
                <path fill="#FFD54F" fill-rule="nonzero" d="M34.494 7.216c.204 0 .37-.165.37-.37V5.37c0-.204-.166-.369-.37-.369s-.37.165-.37.37v1.477c0 .204.166.369.37.369zM34.494 19.773c-.204 0-.37.165-.37.369v1.477c0 .204.166.37.37.37s.37-.166.37-.37v-1.477c0-.204-.166-.37-.37-.37zM42.62 13.125h-1.478c-.204 0-.37.165-.37.37 0 .203.166.369.37.369h1.477c.204 0 .37-.166.37-.37s-.166-.37-.37-.37zM28.216 13.494c0-.204-.165-.37-.37-.37H26.37c-.204 0-.369.166-.369.37s.165.37.37.37h1.477c.204 0 .369-.166.369-.37zM30.85 7.922c.067.115.189.185.321.185.065 0 .129-.017.185-.05.176-.102.237-.328.135-.504l-.739-1.28c-.103-.176-.33-.235-.505-.131-.174.102-.234.325-.134.5l.738 1.28zM38.138 19.066c-.103-.176-.33-.235-.505-.131-.175.102-.235.325-.135.5l.739 1.28c.066.115.188.185.32.185.065 0 .13-.017.185-.05.177-.102.237-.328.135-.504l-.74-1.28zM40.251 10.54c.065 0 .129-.017.185-.05l1.279-.738c.18-.095.25-.318.156-.499-.094-.18-.318-.25-.498-.156-.01.005-.019.01-.027.016l-1.28.738c-.176.102-.237.328-.135.505.066.114.188.184.32.184zM28.553 16.498l-1.28.739c-.176.102-.237.328-.135.504.066.115.188.185.32.185.065 0 .129-.017.185-.05l1.279-.738c.18-.095.25-.318.156-.499-.095-.18-.318-.25-.498-.156-.01.005-.019.01-.027.016zM27.273 9.752l1.28.738c.056.033.119.05.184.05.204 0 .369-.166.369-.37 0-.132-.07-.253-.185-.32l-1.279-.738c-.172-.11-.4-.059-.51.113-.11.173-.058.4.114.51.008.006.017.011.027.016zM41.715 17.237l-1.28-.739c-.171-.11-.4-.058-.509.114-.11.172-.059.4.114.51l.026.015 1.28.739c.056.032.12.05.184.05.204 0 .37-.166.37-.37 0-.132-.07-.254-.185-.32zM37.633 8.057c.056.033.12.05.185.05.132 0 .254-.07.32-.185l.74-1.28c.1-.177.038-.402-.14-.503-.175-.1-.398-.04-.5.134l-.739 1.28c-.102.176-.042.402.134.504zM31.355 18.931c-.177-.102-.402-.041-.504.135l-.739 1.28c-.102.176-.042.402.135.504.056.033.12.05.185.05.132 0 .254-.07.32-.185l.739-1.28c.102-.176.041-.402-.136-.504z"/>
            </g>
        </g>
    </g>
</svg>
