<?xml version="1.0" encoding="UTF-8"?>
<svg width="17px" height="15px" viewBox="0 0 17 15" version="1.1" xmlns="http://www.w3.org/2000/svg" xmlns:xlink="http://www.w3.org/1999/xlink">
    <title>Group</title>
    <g id="Symbols" stroke="none" stroke-width="1" fill="none" fill-rule="evenodd">
        <g id="Desktop-Header" transform="translate(-135.000000, -36.000000)" fill="#FFFFFF" fill-rule="nonzero">
            <g id="Social" transform="translate(128.000000, 28.000000)">
                <g id="Group" transform="translate(7.000000, 8.000000)">
                    <path d="M0.666289288,15 L3.33371071,15 C3.70171027,15 4,14.7703741 4,14.4871201 L4,5.51285128 C4,5.2295688 3.70171027,5 3.33371071,5 L0.666289288,5 C0.298252615,5 0,5.2295688 0,5.51285128 L0,14.4871201 C0,14.7703455 0.298252615,15 0.666289288,15 Z" id="Path"></path>
                    <path d="M0.666289288,3 L3.33371071,3 C3.70171027,3 4,2.75822611 4,2.45995006 L4,0.540049943 C4,0.241773891 3.70171027,0 3.33371071,0 L0.666289288,0 C0.298252615,0 0,0.241773891 0,0.540049943 L0,2.45995006 C0,2.75822611 0.298252615,3 0.666289288,3 Z" id="Path"></path>
                    <path d="M16.1988498,5.39753458 C15.8996296,4.99049578 15.4584147,4.65575751 14.8750273,4.39338101 C14.2916398,4.13118825 13.6476854,4 12.9431342,4 C11.5128749,4 10.3009415,4.56410335 9.30736346,5.69252441 C9.10966126,5.91705108 8.96591824,5.86796266 8.96591824,5.5643372 L8.96591824,4.83156324 C8.96591824,4.52793777 8.72776887,4.28188325 8.43400094,4.28188325 L6.53188767,4.28188325 C6.23809011,4.28188325 6,4.52793777 6,4.83156324 L6,14.4502894 C6,14.7538842 6.23811974,15 6.53188767,15 L8.66124588,15 C8.95504344,15 9.19313354,14.7538842 9.19313354,14.4502894 L9.19313354,11.1051421 C9.19313354,9.7115579 9.27456125,8.75633962 9.43741666,8.23964043 C9.60021281,7.72294124 9.90144791,7.30803237 10.3408256,6.99485258 C10.7802626,6.68167279 11.2764146,6.52500633 11.8295185,6.52500633 C12.2613105,6.52500633 12.6306687,6.6346361 12.9375338,6.85392627 C13.2443693,7.07318581 13.4659842,7.3803329 13.602349,7.77579626 C13.738773,8.17119838 13.8069257,9.04217322 13.8069257,10.3888433 L13.8069257,14.4502588 C13.8069257,14.7538536 14.0450158,15 14.3387838,15 L16.468142,15 C16.7619099,15 17,14.7538536 17,14.4502588 L17,9.00300661 C17,8.04007138 16.9412701,7.3001623 16.8239585,6.78346311 C16.7066469,6.26676392 16.4982477,5.80478774 16.1988498,5.39753458 Z" id="Path"></path>
                </g>
            </g>
        </g>
    </g>
</svg>