<svg xmlns="http://www.w3.org/2000/svg" width="30" height="30" viewBox="0 0 30 30">
    <g fill="none" fill-rule="evenodd">
        <g fill="#07386B" fill-rule="nonzero">
            <g>
                <path d="M356.544 55.325l-7.396-7.426c1.902-2.182 2.944-4.928 2.944-7.787 0-6.678-5.628-12.112-12.546-12.112C332.628 28 327 33.434 327 40.112c0 6.68 5.628 12.113 12.546 12.113 2.597 0 5.072-.756 7.188-2.192l7.451 7.483c.312.312.73.484 1.18.484.424 0 .828-.156 1.134-.44.65-.605.67-1.606.045-2.235zM339.546 31.16c5.113 0 9.273 4.016 9.273 8.952 0 4.937-4.16 8.953-9.273 8.953-5.113 0-9.273-4.016-9.273-8.953 0-4.936 4.16-8.952 9.273-8.952z" transform="translate(-327 -28)"/>
            </g>
        </g>
    </g>
</svg>
