<svg xmlns="http://www.w3.org/2000/svg" width="31" height="31" viewBox="0 0 31 31">
    <g fill="none" fill-rule="evenodd">
        <g>
            <g transform="translate(-487 -16) translate(487 16)">
                <circle cx="15.5" cy="15.5" r="15.5" fill="#F9F9F9"/>
                <g fill="#101012" fill-rule="nonzero">
                    <path d="M13.772 11.295c-1.037 0-1.962.466-2.553 1.186L6.265 9.873c.116-.315.18-.653.18-1.003 0-.353-.064-.688-.184-1.006l4.95-2.605c.588.724 1.517 1.193 2.558 1.193 1.774 0 3.224-1.362 3.224-3.04 0-1.676-1.446-3.038-3.224-3.038-1.78 0-3.225 1.362-3.225 3.039 0 .353.064.692.184 1.006L5.781 7.024c-.587-.727-1.516-1.193-2.557-1.193C1.449 5.83 0 7.193 0 8.87c0 1.676 1.45 3.038 3.228 3.038 1.04 0 1.97-.47 2.561-1.196l4.95 2.608c-.12.318-.187.66-.187 1.013 0 1.674 1.445 3.04 3.224 3.04 1.779 0 3.224-1.363 3.224-3.04 0-1.676-1.45-3.039-3.228-3.039z" transform="translate(7 6.626)"/>
                </g>
            </g>
        </g>
    </g>
</svg>
