<?xml version="1.0" encoding="UTF-8"?>
<svg width="17px" height="16px" viewBox="0 0 17 16" version="1.1" xmlns="http://www.w3.org/2000/svg" xmlns:xlink="http://www.w3.org/1999/xlink">
    <title>Path</title>
    <g id="Symbols" stroke="none" stroke-width="1" fill="none" fill-rule="evenodd">
        <g id="Desktop-Header" transform="translate(-227.000000, -36.000000)" fill="#FFFFFF" fill-rule="nonzero">
            <g id="Social-media" transform="translate(128.000000, 28.000000)">
                <path d="M115.902324,10.5541907 C115.789305,10.4215085 115.607337,10.3870268 115.458839,10.470088 C115.306183,10.5445566 115.148261,10.6058575 114.986527,10.6533954 C115.238759,10.306867 115.429215,9.91328424 115.548263,9.49243597 C115.600685,9.28067274 115.483265,9.06336714 115.286018,9.00708789 C115.18069,8.97703261 115.068399,8.99842096 114.979147,9.06552457 C114.417203,9.39200373 113.819919,9.64282394 113.200772,9.81225685 C111.926202,8.52069829 109.984707,8.35970914 108.54047,9.42581592 C107.42798,10.2333655 106.81552,11.629076 106.943923,13.0641783 C104.532368,12.8435621 102.313591,11.5605961 100.814958,9.52022222 C100.737971,9.42023635 100.621487,9.36518461 100.500811,9.37184289 C100.378437,9.37972868 100.267704,9.45226307 100.205165,9.56545392 C99.6965434,10.4580733 99.5491885,11.5348185 99.7971591,12.5467663 C99.9243146,13.0667077 100.142281,13.5559986 100.439485,13.9886384 C100.305608,13.9182614 100.17963,13.8317409 100.064012,13.7307507 C99.9055012,13.5927122 99.6727754,13.6187502 99.5441647,13.788927 C99.4908079,13.8595644 99.4616348,13.9477215 99.4616002,14.0386685 C99.4835666,15.5067274 100.234442,16.8503248 101.430674,17.5619801 C101.269287,17.5407034 101.109979,17.5040642 100.954655,17.4524718 C100.75921,17.3893483 100.553093,17.5082675 100.494297,17.7180965 C100.468658,17.8096386 100.474652,17.9080622 100.51117,17.9952522 C101.03036,19.2438481 102.068323,20.15581 103.311052,20.4552097 C102.12705,21.1723702 100.76368,21.4737041 99.4120892,21.3169927 C99.2368433,21.2929633 99.0708135,21.4073445 99.018115,21.5883829 C98.9637881,21.7680078 99.0348843,21.9638135 99.1881292,22.0565831 C100.843057,23.1122375 102.725686,23.6865611 104.650377,23.7230143 C106.496869,23.7157608 108.300295,23.123657 109.834719,22.0208738 C112.763939,19.9338548 114.589608,16.1867653 114.335366,12.8340768 C114.961685,12.3363421 115.504989,11.7283923 115.942272,11.0359306 C116.032147,10.8841664 116.015759,10.6865009 115.902324,10.5541907 Z" id="Path"></path>
            </g>
        </g>
    </g>
</svg>